<?xml version="1.0" encoding="utf-8"?>
<!-- Generator: Adobe Illustrator 21.1.0, SVG Export Plug-In . SVG Version: 6.00 Build 0)  -->
<svg version="1.1" id="Livello_1" xmlns="http://www.w3.org/2000/svg" xmlns:xlink="http://www.w3.org/1999/xlink" x="0px" y="0px"
	 viewBox="0 0 476 206" style="enable-background:new 0 0 476 206;" xml:space="preserve">
<style type="text/css">
	.st0{fill:none;stroke:#000000;stroke-width:1.3656;}
</style>
<g>
	<path d="M179.1,97.3l-6.4-9.1c2.1-1.4,8.8-5.7,8.8-17.9c0-2-0.2-4.2-1-6.2c-1.7-4.2-4.7-4.9-6.6-4.9c-3.7,0-5,2.5-5.7,4.3
		c-0.5,1.3-0.6,1.5-1.8,6.7l-1.5,7c-0.9,3.7-1.3,5.5-2,7.3c-1.1,2.6-4.6,9.7-14.2,9.7c-11,0-18-9.2-18-22.8
		c0-12.4,6.1-19.2,11.7-23.2L149,57c-2.9,2-8.6,5.7-8.6,15c0,5.8,2.6,10.9,7,10.9c4.9,0,5.9-5.4,6.9-10.6l1.3-6
		c1.6-7.8,4.8-18.7,17.2-18.7c13.3,0,18.6,12.3,18.6,24.6c0,3.2-0.3,6.8-1.3,10.3C188.9,86.2,186.1,93,179.1,97.3 M183.8,44.1h-51.7
		V33.4h42.7C156.6,14.7,131.1,3,102.9,3C47.7,3.1,2.9,47.9,3,103.1c0,27.1,10.8,51.6,28.4,69.6c-1.4-2-2.4-4.2-3-6.2
		c-1-3.5-1-6-1.1-15.9v-47.5h14.9v49c0,3.4-0.1,6.7,1,9.7c3,7.7,11.4,8.6,16.1,8.6c2.4,0,8.4-0.1,12.8-4c4.4-4,4.4-8.5,4.4-15.1
		v-48.2h15v50.2c-0.1,9-0.1,16.5-8.6,23.7c-8.1,7.1-18.6,7.8-24,7.8c-4.9,0-9.6-0.6-14.1-2.1c-1.9-0.6-3.5-1.4-5.1-2.3
		C56.9,194.5,79,203,103.1,203c55.2-0.1,100-44.9,99.9-100.1C203,80.9,195.8,60.6,183.8,44.1"/>
</g>
<rect x="238.5" y="6.2" width="38.7" height="193.5"/>
<line class="st0" x1="470.7" y1="6.2" x2="470.7" y2="199.8"/>
<g>
	<path d="M309.3,25.6c0,1.8,0,2.7-0.4,3.7c-0.7,2.1-3.1,4.8-8.2,4.8c-3.3,0-6.9-1.3-8-4.7c-0.3-1.1-0.3-2-0.3-4.3V12.7h3.9v12.8
		c0,1.2,0,1.7,0.2,2.3c0.4,1.2,1.5,2.5,4.3,2.5c0.5,0,3.4,0,4.2-2.4c0.2-0.7,0.3-1.2,0.3-2.6V12.7h3.9V25.6z"/>
	<path d="M317.8,18.8v1.7c1.3-2,4-2.2,4.6-2.2c3.1,0,4.8,2,4.8,4.9v10.3h-3.5v-8.3c0-1.6-0.4-3.5-2.6-3.5c-0.4,0-1.1,0.1-1.9,0.7
		c-1.1,0.9-1.4,2.1-1.4,4.7v6.4h-3.6V18.8H317.8z"/>
	<path d="M331.4,16.5v-3.6h3.5v3.6H331.4z M331.4,33.6V18.8h3.5v14.8H331.4z"/>
	<path d="M346.4,33.6h-3.8l-4.8-14.8h3.7l3.1,10.2l3-10.2h3.7L346.4,33.6z"/>
	<path d="M356.6,26.9c0.1,0.7,0.7,3.7,4.2,3.7c2.5,0,3.6-1.5,3.9-2l3,1.7c-1.2,1.6-3.3,3.8-7.2,3.8c-4.4,0-7.6-3-7.6-7.9
		c0-5.3,3.6-7.8,7.4-7.8c5.7,0,7.3,4.5,7.3,8.6H356.6z M363.6,24.3c-0.1-0.7-0.5-3.1-3.3-3.1c-2.9,0-3.5,2.5-3.6,3.1H363.6z"/>
	<path d="M374.5,18.8v2.1c1.1-2.3,3.7-2.4,4.4-2.4h0.3v3.6c-0.7,0-3.6,0-4.4,2.7c-0.3,0.8-0.3,1.6-0.3,2.4v6.3H371V18.8H374.5z"/>
	<path d="M391.9,23.4c-0.8-1.6-2.3-2.2-4-2.2c-0.7,0-2.5,0.2-2.5,1.5c0,1,0.9,1.3,3,1.7l2.4,0.4c2.2,0.4,4,1.7,4,4.1
		c0,2.7-2.6,5.1-6.7,5.1s-6.3-1.8-7.1-2.7l2.7-2.2c0.7,0.9,2,1.9,4.3,1.9c2.1,0,2.9-1.1,2.9-1.7c0-0.9-0.8-1.2-2.2-1.4l-1.8-0.3
		c-1.2-0.2-5.1-0.9-5.1-4.4c0-2.9,2.8-4.8,6.4-4.8c1.2,0,4.1,0.2,6.4,2.8L391.9,23.4z"/>
	<path d="M398.3,16.5v-3.6h3.5v3.6H398.3z M398.3,33.6V18.8h3.5v14.8H398.3z"/>
	<path d="M404.5,18.8h2.2v-5.3h3.6v5.3h3.2v2.5h-3.2v7.3c0,0.6,0,1.2,0.4,1.6c0.4,0.4,1.2,0.4,1.3,0.4c0.5,0,1-0.1,1.5-0.2v3
		c-0.5,0.1-1.3,0.2-2.5,0.2c-3.2,0-4.2-1.2-4.2-3.6v-8.8h-2.2V18.8z"/>
	<path d="M425.4,33.6l-0.1-1.2c-1,0.8-2.5,1.5-4.3,1.5c-3.4,0-5.4-2-5.4-4.5c0-3.2,2.5-4.5,5.3-5c2.2-0.4,3.6-0.8,4.6-1.1
		c0-1.1-0.3-2.2-2.5-2.2c-2.7,0-3,1.5-3,2.2l-3.6-0.2c0.1-1,0.3-4.8,6.5-4.8c4.3,0,6.2,1.6,6.2,4.2v8.6c0,1.1,0.1,1.4,0.7,2.4H425.4
		z M422.2,16.6l-3.3-3.9h4.4l1.5,3.9H422.2z M425.4,26.2c-0.6,0.3-1.5,0.6-2.8,0.8c-1.6,0.2-3.3,0.6-3.3,2c0,1,0.7,1.8,2.4,1.8
		c1.6,0,3.6-0.8,3.6-2.7V26.2z"/>
</g>
<g>
	<path d="M301.8,65.4V64c-0.3,0.4-1.5,1.9-4.1,1.9c-3.1,0-6.6-2.2-6.6-7.5c0-5.3,3.2-8.1,6.7-8.1c1.2,0,3,0.4,4,1.7v-7.3h3.5v20.9
		H301.8z M298.4,62.7c1.9,0,3.4-1.6,3.4-4.3c0-2.2-0.7-4.8-3.4-4.8c-2.2,0-3.6,2-3.6,4.5C294.9,60.1,295.8,62.7,298.4,62.7z"/>
	<path d="M312.7,58.7c0.1,0.7,0.7,3.7,4.2,3.7c2.5,0,3.6-1.5,3.9-2l3,1.7c-1.2,1.6-3.3,3.8-7.2,3.8c-4.4,0-7.6-3-7.6-7.9
		c0-5.3,3.6-7.8,7.4-7.8c5.7,0,7.3,4.5,7.3,8.6H312.7z M319.8,56.1c-0.1-0.7-0.5-3.1-3.3-3.1c-2.9,0-3.5,2.5-3.6,3.1H319.8z"/>
	<path d="M327.2,65.4V44.5h3.6v20.9H327.2z"/>
	<path d="M335.2,65.4V44.5h3.6v20.9H335.2z"/>
	<path d="M352,65.4l-0.1-1.2c-1,0.8-2.5,1.5-4.3,1.5c-3.4,0-5.4-2-5.4-4.5c0-3.2,2.5-4.5,5.3-5c2.2-0.4,3.6-0.8,4.6-1.1
		c0-1.1-0.3-2.2-2.5-2.2c-2.7,0-3,1.5-3,2.2l-3.6-0.2c0.1-1,0.3-4.8,6.5-4.8c4.3,0,6.2,1.6,6.2,4.2V63c0,1.1,0.1,1.4,0.7,2.4H352z
		 M352,58.1c-0.6,0.3-1.5,0.6-2.8,0.8c-1.6,0.2-3.3,0.6-3.3,2c0,1,0.7,1.8,2.4,1.8c1.6,0,3.6-0.8,3.6-2.7V58.1z"/>
</g>
<g>
	<path d="M305.4,82.5c-0.7-1.1-2.2-3.1-5.4-3.1c-0.9,0-3.9,0.3-3.9,2.5c0,1.6,1.6,2,3.8,2.5l2.2,0.5c3.3,0.7,6.8,2,6.8,6.2
		c0,5.2-5.1,6.7-8.9,6.7c-3.5,0-7.3-1.2-9.1-4.5l3.3-2.3c0.9,1.4,2.6,3.1,6.5,3.1c2.3,0,4-0.9,4-2.8c0-1.7-1.4-2.1-4-2.7l-2.7-0.6
		c-2.7-0.6-6-1.7-6-5.8c0-3.7,3-6.5,8.3-6.5c1.9,0,5.5,0.3,8.4,4.2L305.4,82.5z"/>
	<path d="M319.2,97.3h-3.8l-4.8-14.8h3.7l3.1,10.2l3-10.2h3.7L319.2,97.3z"/>
	<path d="M326.8,80.2v-3.6h3.5v3.6H326.8z M326.8,97.3V82.5h3.5v14.8H326.8z"/>
	<path d="M333.6,97.3v-2.7l8-8.9h-7.2v-3.2h11.9v2.8l-7.8,8.9h7.8v3.1H333.6z"/>
	<path d="M349,97.3v-2.7l8-8.9h-7.2v-3.2h11.9v2.8l-7.8,8.9h7.8v3.1H349z"/>
	<path d="M367.9,90.6c0.1,0.7,0.7,3.7,4.2,3.7c2.5,0,3.6-1.5,3.9-2l3,1.7c-1.2,1.6-3.3,3.8-7.2,3.8c-4.4,0-7.6-3-7.6-7.9
		c0-5.3,3.6-7.8,7.4-7.8c5.7,0,7.3,4.5,7.3,8.6H367.9z M374.9,88c-0.1-0.7-0.5-3.1-3.3-3.1c-2.9,0-3.5,2.5-3.6,3.1H374.9z"/>
	<path d="M385.8,82.5v2.1c1.1-2.3,3.7-2.4,4.4-2.4h0.3v3.6c-0.7,0-3.6,0-4.4,2.7c-0.3,0.8-0.3,1.6-0.3,2.4v6.3h-3.4V82.5H385.8z"/>
	<path d="M402.2,97.3l-0.1-1.2c-1,0.8-2.5,1.5-4.3,1.5c-3.4,0-5.4-2-5.4-4.5c0-3.2,2.5-4.5,5.3-5c2.2-0.4,3.6-0.8,4.6-1.1
		c0-1.1-0.3-2.2-2.5-2.2c-2.7,0-3,1.5-3,2.2l-3.6-0.2c0.1-1,0.3-4.8,6.5-4.8c4.3,0,6.2,1.6,6.2,4.2v8.6c0,1.1,0.1,1.4,0.7,2.4H402.2
		z M402.2,89.9c-0.6,0.3-1.5,0.6-2.8,0.8c-1.6,0.2-3.3,0.6-3.3,2c0,1,0.7,1.8,2.4,1.8c1.6,0,3.6-0.8,3.6-2.7V89.9z"/>
</g>
<g>
	<path d="M292,112.1v-3.6h3.5v3.6H292z M292,129.2v-14.8h3.5v14.8H292z"/>
	<path d="M298.3,114.4h2.2v-5.3h3.6v5.3h3.2v2.5H304v7.3c0,0.6,0,1.2,0.4,1.6c0.4,0.4,1.2,0.4,1.3,0.4c0.5,0,1-0.1,1.5-0.2v3
		c-0.5,0.1-1.3,0.2-2.5,0.2c-3.2,0-4.2-1.2-4.2-3.6v-8.8h-2.2V114.4z"/>
	<path d="M319.1,129.2L319,128c-1,0.8-2.5,1.5-4.3,1.5c-3.4,0-5.4-2-5.4-4.5c0-3.2,2.5-4.5,5.3-5c2.2-0.4,3.6-0.8,4.6-1.1
		c0-1.1-0.3-2.2-2.5-2.2c-2.7,0-3,1.5-3,2.2l-3.6-0.2c0.1-1,0.3-4.8,6.5-4.8c4.3,0,6.2,1.6,6.2,4.2v8.6c0,1.1,0.1,1.4,0.7,2.4H319.1
		z M319.1,121.8c-0.6,0.3-1.5,0.6-2.8,0.8c-1.6,0.2-3.3,0.6-3.3,2c0,1,0.7,1.8,2.4,1.8c1.6,0,3.6-0.8,3.6-2.7V121.8z"/>
	<path d="M327.1,129.2v-20.9h3.6v20.9H327.1z"/>
	<path d="M335,112.1v-3.6h3.5v3.6H335z M335,129.2v-14.8h3.5v14.8H335z"/>
	<path d="M351.8,129.2l-0.1-1.2c-1,0.8-2.5,1.5-4.3,1.5c-3.4,0-5.4-2-5.4-4.5c0-3.2,2.5-4.5,5.3-5c2.2-0.4,3.6-0.8,4.6-1.1
		c0-1.1-0.3-2.2-2.5-2.2c-2.7,0-3,1.5-3,2.2l-3.6-0.2c0.1-1,0.3-4.8,6.5-4.8c4.3,0,6.2,1.6,6.2,4.2v8.6c0,1.1,0.1,1.4,0.7,2.4H351.8
		z M351.8,121.8c-0.6,0.3-1.5,0.6-2.8,0.8c-1.6,0.2-3.3,0.6-3.3,2c0,1,0.7,1.8,2.4,1.8c1.6,0,3.6-0.8,3.6-2.7V121.8z"/>
	<path d="M363.2,114.4v1.7c1.3-2,4-2.2,4.6-2.2c3.1,0,4.8,2,4.8,4.9v10.3h-3.5v-8.3c0-1.6-0.4-3.5-2.6-3.5c-0.4,0-1.1,0.1-1.9,0.7
		c-1.1,0.9-1.4,2.1-1.4,4.7v6.4h-3.6v-14.8H363.2z"/>
	<path d="M385.7,129.2l-0.1-1.2c-1,0.8-2.5,1.5-4.3,1.5c-3.4,0-5.4-2-5.4-4.5c0-3.2,2.5-4.5,5.3-5c2.2-0.4,3.6-0.8,4.6-1.1
		c0-1.1-0.3-2.2-2.5-2.2c-2.7,0-3,1.5-3,2.2l-3.6-0.2c0.1-1,0.3-4.8,6.5-4.8c4.3,0,6.2,1.6,6.2,4.2v8.6c0,1.1,0.1,1.4,0.7,2.4H385.7
		z M385.7,121.8c-0.6,0.3-1.5,0.6-2.8,0.8c-1.6,0.2-3.3,0.6-3.3,2c0,1,0.7,1.8,2.4,1.8c1.6,0,3.6-0.8,3.6-2.7V121.8z"/>
</g>
</svg>
